<svg viewBox="0 0 157 57" xmlns="http://www.w3.org/2000/svg" class="jsx-1728138817 -absolute logo-svg">
    <path fill-rule="evenodd" clip-rule="evenodd" d="M60.73 5.086a3.27 3.27 0 0 0 .55-1.816h-.01A3.262 3.262 0 0 0 56.186.556a3.27 3.27 0 1 0 4.544 4.53zM83.32 21.29c0-4.55-3-7.42-7.1-7.42S69 16.74 69 21.29c0 4.07 3 6.79 7.11 10.3 4.07-3.35 7.18-6.31 7.18-10.3h.03zm-3.65 13.83c3.35 2.9 6.67 6 6.67 11a10.288 10.288 0 0 1-14.297 9.797 10.292 10.292 0 0 1-6.273-9.797 11.17 11.17 0 0 1 2.78-7.25l3.48 3a6.67 6.67 0 0 0-1.66 4.24 5.68 5.68 0 0 0 11.36 0c0-3.179-2.334-5.195-5.496-7.927l-.154-.133-3.17-2.74-.35-.3c-4.23-3.65-8.48-7.49-8.48-13.77a12.471 12.471 0 0 1 3.52-8.93 12.06 12.06 0 0 1 8.64-3.47c7 0 12.08 5.22 12.08 12.4 0 6.5-5 10.88-8.63 13.83l-.02.05zm-28.79-13.6a40.83 40.83 0 0 0-.14-4.14c-.48-4.07-2.86-7.44-7.2-8.13a9.27 9.27 0 0 0-9.72 4h-.31v-3.4h-4.87v26h5V20.8a8.57 8.57 0 0 1 1.13-4.42 5.93 5.93 0 0 1 6.42-2.59 4.91 4.91 0 0 1 4.18 3.57c.28 1.023.42 2.08.42 3.14.033 3.233.022 6.46.011 9.69v.001c-.006 1.616-.011 3.232-.011 4.849v.83h5.08V21.52h.01zM6 20.32h14.15c.15-2.75-1.71-6.3-6.39-6.62A7 7 0 0 0 6 20.32zm16.78-6.1c1.78 2.75 2.22 4.97 2.22 9.33v.88H5.29A7.75 7.75 0 0 0 10.75 32a7.731 7.731 0 0 0 8.61-2.66h5.31c-.46.944-1.02 1.835-1.67 2.66a11.37 11.37 0 0 1-7.91 4.57 12.911 12.911 0 0 1-15-11.88 16.14 16.14 0 0 1 1.1-7.83 12.46 12.46 0 0 1 12.74-7.71 11.29 11.29 0 0 1 8.85 5.07zm37.69-4.39h-4.93v25.99h4.93V9.83zm69.32 6.4a8.499 8.499 0 0 0-8.5-7.23c-3.75 0-6.94.89-8.93 4.16H112c-1.64-3.32-3.79-4.08-7.23-4.15a8.89 8.89 0 0 0-7.91 4.15h-.25V9.81h-4.8v26h5V20.22c0-3.93 2.57-6.91 6.83-6.52a4.744 4.744 0 0 1 4.16 2.82 8.08 8.08 0 0 1 .62 3.44v15.9h5.07V20.09c0-3.85 2.65-6.89 6.82-6.46a4.548 4.548 0 0 1 4.21 3.11c.311.919.477 1.88.49 2.85v16.18h5V19.05a15.682 15.682 0 0 0-.28-2.9l.06.08zm14.637 16.04A7.46 7.46 0 0 0 147.33 31l-.03-.04c2.52-1.87 2.7-4.62 2.65-7.53-.691.107-1.378.21-2.063.313-2.329.35-4.623.693-6.887 1.157a3.54 3.54 0 0 0-2.74 3.72 3.743 3.743 0 0 0 3 3.6c1.04.243 2.12.26 3.167.05zM155.15 17.7c.13 4.36.07 12.9.07 12.9l.93 5.17h-5.06l-.65-3.42h-.25a16.31 16.31 0 0 1-2.7 2.74 9.999 9.999 0 0 1-11.82-.77 7.518 7.518 0 0 1 2.26-12.53 20.626 20.626 0 0 1 5.07-1.17c.501-.073 1.002-.144 1.503-.215a191.64 191.64 0 0 0 3.857-.575c1.44-.24 2.04-.93 1.8-2.39a4.002 4.002 0 0 0-2.95-3.37 7.51 7.51 0 0 0-4.93-.07 4.88 4.88 0 0 0-3.44 3.57h-5.09a8.652 8.652 0 0 1 4.34-6.68 12.76 12.76 0 0 1 12.89-.19 7.688 7.688 0 0 1 4.17 7z" class="jsx-1728138817"></path>
</svg>